
<svg fill="#000000" version="1.1" id="Capa_1" xmlns="http://www.w3.org/2000/svg"
    xmlns:xlink="http://www.w3.org/1999/xlink" width="256px" height="256px" viewBox="0 0 35.088 35.088"
    xml:space="preserve">

    <g id="SVGRepo_bgCarrier" stroke-width="0" />

    <g id="SVGRepo_tracerCarrier" stroke-linecap="round" stroke-linejoin="round" />

    <g id="SVGRepo_iconCarrier">
        <g>
            <path
                d="M34.921,14.075l-8.87,7.93l2.517,11.628c0.042,0.193-0.035,0.394-0.195,0.511c-0.087,0.062-0.189,0.097-0.294,0.097 c-0.086,0-0.173-0.022-0.251-0.067l-10.284-5.986L7.26,34.172c-0.172,0.099-0.385,0.088-0.545-0.028 c-0.16-0.115-0.236-0.314-0.194-0.51l2.515-11.628l-8.87-7.93c-0.147-0.134-0.203-0.341-0.142-0.527 c0.061-0.188,0.228-0.322,0.425-0.343l11.837-1.201l4.8-10.887c0.16-0.361,0.755-0.361,0.915,0l4.799,10.887l11.838,1.201 c0.196,0.021,0.363,0.152,0.426,0.343C35.124,13.735,35.068,13.94,34.921,14.075z" />
        </g>
    </g>

</svg>